<svg width="166" height="58" viewBox="0 0 166 58" fill="none" xmlns="http://www.w3.org/2000/svg">
<path d="M84.6901 16.5775V27.6818H81.9764V23.1104H77.7552V27.6818H75.0415V16.5775H77.7552V20.9275H81.9764V16.5775H84.6901Z" fill="currentColor"/>
<path d="M89.3628 18.7445V20.9907H92.9969V23.0787H89.3628V25.5147H93.473V27.6818H86.6491V16.5775H93.473V18.7445H89.3628Z" fill="currentColor"/>
<path d="M97.9008 16.5775V23.2211C97.9008 23.8855 98.0648 24.3969 98.3928 24.7555C98.7208 25.114 99.2021 25.2933 99.8369 25.2933C100.472 25.2933 100.958 25.114 101.297 24.7555C101.635 24.3969 101.805 23.8855 101.805 23.2211V16.5775H104.518V23.2053C104.518 24.1965 104.307 25.0349 103.884 25.7204C103.46 26.4058 102.889 26.9225 102.17 27.2705C101.461 27.6185 100.667 27.7925 99.7893 27.7925C98.9112 27.7925 98.123 27.6238 97.4248 27.2864C96.7371 26.9384 96.1922 26.4216 95.7902 25.7362C95.3882 25.0402 95.1872 24.1965 95.1872 23.2053V16.5775H97.9008Z" fill="currentColor"/>
<path d="M112.105 27.6818L109.788 23.49H109.138V27.6818H106.424V16.5775H110.979C111.857 16.5775 112.603 16.7304 113.216 17.0362C113.84 17.342 114.306 17.7638 114.613 18.3016C114.919 18.8289 115.073 19.4195 115.073 20.0733C115.073 20.8115 114.861 21.4705 114.438 22.0505C114.025 22.6305 113.412 23.0418 112.597 23.2844L115.168 27.6818H112.105ZM109.138 21.576H110.82C111.317 21.576 111.687 21.4547 111.931 21.2122C112.185 20.9696 112.312 20.6269 112.312 20.184C112.312 19.7622 112.185 19.43 111.931 19.1875C111.687 18.9449 111.317 18.8236 110.82 18.8236H109.138V21.576Z" fill="currentColor"/>
<path d="M119.49 16.5775V27.6818H116.776V16.5775H119.49Z" fill="currentColor"/>
<path d="M125.487 27.7925C124.673 27.7925 123.943 27.6607 123.297 27.3971C122.652 27.1335 122.134 26.7433 121.742 26.2265C121.361 25.7098 121.16 25.0876 121.139 24.36H124.027C124.07 24.7713 124.213 25.0876 124.456 25.3091C124.699 25.52 125.017 25.6255 125.408 25.6255C125.81 25.6255 126.128 25.5358 126.36 25.3565C126.593 25.1667 126.709 24.9084 126.709 24.5815C126.709 24.3073 126.614 24.0805 126.424 23.9013C126.244 23.722 126.016 23.5744 125.741 23.4584C125.477 23.3424 125.096 23.2105 124.599 23.0629C123.879 22.8415 123.292 22.62 122.837 22.3985C122.382 22.1771 121.991 21.8502 121.663 21.4178C121.335 20.9855 121.171 20.4213 121.171 19.7253C121.171 18.6918 121.547 17.8851 122.298 17.3051C123.049 16.7145 124.027 16.4193 125.234 16.4193C126.461 16.4193 127.45 16.7145 128.201 17.3051C128.952 17.8851 129.354 18.6971 129.407 19.7411H126.471C126.45 19.3825 126.318 19.1031 126.075 18.9027C125.831 18.6918 125.519 18.5864 125.138 18.5864C124.81 18.5864 124.546 18.676 124.345 18.8553C124.144 19.024 124.043 19.2718 124.043 19.5987C124.043 19.9573 124.213 20.2367 124.551 20.4371C124.89 20.6375 125.419 20.8536 126.138 21.0856C126.858 21.3282 127.439 21.5602 127.884 21.7816C128.339 22.0031 128.73 22.3247 129.058 22.7465C129.386 23.1684 129.55 23.7115 129.55 24.3758C129.55 25.0085 129.386 25.5833 129.058 26.1C128.741 26.6167 128.275 27.028 127.662 27.3338C127.048 27.6396 126.323 27.7925 125.487 27.7925Z" fill="currentColor"/>
<path d="M139.234 16.5775V18.7445H136.282V27.6818H133.569V18.7445H130.617V16.5775H139.234Z" fill="currentColor"/>
<path d="M140.136 22.1138C140.136 21.0171 140.374 20.0416 140.85 19.1875C141.326 18.3227 141.987 17.6531 142.834 17.1785C143.691 16.6935 144.659 16.4509 145.738 16.4509C147.06 16.4509 148.192 16.7989 149.134 17.4949C150.075 18.1909 150.705 19.14 151.022 20.3422H148.039C147.817 19.8782 147.499 19.5249 147.087 19.2824C146.685 19.0398 146.224 18.9185 145.706 18.9185C144.87 18.9185 144.193 19.2085 143.675 19.7885C143.156 20.3685 142.897 21.1436 142.897 22.1138C142.897 23.084 143.156 23.8591 143.675 24.4391C144.193 25.0191 144.87 25.3091 145.706 25.3091C146.224 25.3091 146.685 25.1878 147.087 24.9453C147.499 24.7027 147.817 24.3495 148.039 23.8855H151.022C150.705 25.0876 150.075 26.0367 149.134 26.7327C148.192 27.4182 147.06 27.7609 145.738 27.7609C144.659 27.7609 143.691 27.5236 142.834 27.0491C141.987 26.564 141.326 25.8944 140.85 25.0402C140.374 24.186 140.136 23.2105 140.136 22.1138Z" fill="currentColor"/>
<path d="M156.715 27.7925C155.9 27.7925 155.17 27.6607 154.525 27.3971C153.88 27.1335 153.361 26.7433 152.97 26.2265C152.589 25.7098 152.388 25.0876 152.367 24.36H155.255C155.297 24.7713 155.44 25.0876 155.683 25.3091C155.927 25.52 156.244 25.6255 156.636 25.6255C157.038 25.6255 157.355 25.5358 157.588 25.3565C157.821 25.1667 157.937 24.9084 157.937 24.5815C157.937 24.3073 157.842 24.0805 157.651 23.9013C157.471 23.722 157.244 23.5744 156.969 23.4584C156.704 23.3424 156.324 23.2105 155.826 23.0629C155.107 22.8415 154.52 22.62 154.065 22.3985C153.61 22.1771 153.218 21.8502 152.89 21.4178C152.562 20.9855 152.398 20.4213 152.398 19.7253C152.398 18.6918 152.774 17.8851 153.525 17.3051C154.276 16.7145 155.255 16.4193 156.461 16.4193C157.688 16.4193 158.678 16.7145 159.429 17.3051C160.18 17.8851 160.582 18.6971 160.635 19.7411H157.699C157.678 19.3825 157.545 19.1031 157.302 18.9027C157.059 18.6918 156.747 18.5864 156.366 18.5864C156.038 18.5864 155.773 18.676 155.572 18.8553C155.371 19.024 155.271 19.2718 155.271 19.5987C155.271 19.9573 155.44 20.2367 155.779 20.4371C156.117 20.6375 156.646 20.8536 157.366 21.0856C158.085 21.3282 158.667 21.5602 159.111 21.7816C159.566 22.0031 159.958 22.3247 160.286 22.7465C160.614 23.1684 160.778 23.7115 160.778 24.3758C160.778 25.0085 160.614 25.5833 160.286 26.1C159.968 26.6167 159.503 27.028 158.889 27.3338C158.275 27.6396 157.551 27.7925 156.715 27.7925Z" fill="currentColor"/>
<path d="M74.5813 45.8411C74.5813 44.7444 74.8193 43.7689 75.2954 42.9147C75.7715 42.05 76.4327 41.3804 77.2791 40.9058C78.136 40.4207 79.1041 40.1782 80.1832 40.1782C81.5056 40.1782 82.6377 40.5262 83.5793 41.2222C84.5208 41.9182 85.1503 42.8673 85.4677 44.0695H82.4843C82.2621 43.6055 81.9447 43.2522 81.5321 43.0096C81.1301 42.7671 80.6699 42.6458 80.1515 42.6458C79.3157 42.6458 78.6386 42.9358 78.1202 43.5158C77.6018 44.0958 77.3426 44.8709 77.3426 45.8411C77.3426 46.8113 77.6018 47.5864 78.1202 48.1664C78.6386 48.7464 79.3157 49.0364 80.1515 49.0364C80.6699 49.0364 81.1301 48.9151 81.5321 48.6725C81.9447 48.43 82.2621 48.0767 82.4843 47.6127H85.4677C85.1503 48.8149 84.5208 49.764 83.5793 50.46C82.6377 51.1455 81.5056 51.4882 80.1832 51.4882C79.1041 51.4882 78.136 51.2509 77.2791 50.7764C76.4327 50.2913 75.7715 49.6216 75.2954 48.7675C74.8193 47.9133 74.5813 46.9378 74.5813 45.8411Z" fill="currentColor"/>
<path d="M92.3982 51.5198C91.3508 51.5198 90.3881 51.2773 89.51 50.7922C88.6424 50.3071 87.9495 49.6322 87.4311 48.7675C86.9233 47.8922 86.6693 46.9115 86.6693 45.8253C86.6693 44.7391 86.9233 43.7636 87.4311 42.8989C87.9495 42.0342 88.6424 41.3593 89.51 40.8742C90.3881 40.3891 91.3508 40.1465 92.3982 40.1465C93.4456 40.1465 94.4031 40.3891 95.2706 40.8742C96.1487 41.3593 96.8364 42.0342 97.3336 42.8989C97.8415 43.7636 98.0954 44.7391 98.0954 45.8253C98.0954 46.9115 97.8415 47.8922 97.3336 48.7675C96.8258 49.6322 96.1381 50.3071 95.2706 50.7922C94.4031 51.2773 93.4456 51.5198 92.3982 51.5198ZM92.3982 49.0522C93.2869 49.0522 93.9957 48.7569 94.5247 48.1664C95.0643 47.5758 95.3341 46.7955 95.3341 45.8253C95.3341 44.8445 95.0643 44.0642 94.5247 43.4842C93.9957 42.8936 93.2869 42.5984 92.3982 42.5984C91.4989 42.5984 90.7795 42.8884 90.24 43.4684C89.711 44.0484 89.4465 44.834 89.4465 45.8253C89.4465 46.806 89.711 47.5916 90.24 48.1822C90.7795 48.7622 91.4989 49.0522 92.3982 49.0522Z" fill="currentColor"/>
<path d="M102.319 49.3211H105.874V51.4091H99.6051V40.3047H102.319V49.3211Z" fill="currentColor"/>
<path d="M109.882 49.3211H113.436V51.4091H107.168V40.3047H109.882V49.3211Z" fill="currentColor"/>
<path d="M117.444 42.4718V44.718H121.078V46.806H117.444V49.242H121.555V51.4091H114.731V40.3047H121.555V42.4718H117.444Z" fill="currentColor"/>
<path d="M122.856 45.8411C122.856 44.7444 123.094 43.7689 123.57 42.9147C124.046 42.05 124.708 41.3804 125.554 40.9058C126.411 40.4207 127.379 40.1782 128.458 40.1782C129.78 40.1782 130.912 40.5262 131.854 41.2222C132.796 41.9182 133.425 42.8673 133.743 44.0695H130.759C130.537 43.6055 130.22 43.2522 129.807 43.0096C129.405 42.7671 128.945 42.6458 128.426 42.6458C127.59 42.6458 126.913 42.9358 126.395 43.5158C125.877 44.0958 125.617 44.8709 125.617 45.8411C125.617 46.8113 125.877 47.5864 126.395 48.1664C126.913 48.7464 127.59 49.0364 128.426 49.0364C128.945 49.0364 129.405 48.9151 129.807 48.6725C130.22 48.43 130.537 48.0767 130.759 47.6127H133.743C133.425 48.8149 132.796 49.764 131.854 50.46C130.912 51.1455 129.78 51.4882 128.458 51.4882C127.379 51.4882 126.411 51.2509 125.554 50.7764C124.708 50.2913 124.046 49.6216 123.57 48.7675C123.094 47.9133 122.856 46.9378 122.856 45.8411Z" fill="currentColor"/>
<path d="M143.418 40.3047V42.4718H140.467V51.4091H137.753V42.4718H134.801V40.3047H143.418Z" fill="currentColor"/>
<path d="M150.049 51.5198C149.002 51.5198 148.039 51.2773 147.161 50.7922C146.293 50.3071 145.6 49.6322 145.082 48.7675C144.574 47.8922 144.32 46.9115 144.32 45.8253C144.32 44.7391 144.574 43.7636 145.082 42.8989C145.6 42.0342 146.293 41.3593 147.161 40.8742C148.039 40.3891 149.002 40.1465 150.049 40.1465C151.096 40.1465 152.054 40.3891 152.921 40.8742C153.8 41.3593 154.487 42.0342 154.984 42.8989C155.492 43.7636 155.746 44.7391 155.746 45.8253C155.746 46.9115 155.492 47.8922 154.984 48.7675C154.477 49.6322 153.789 50.3071 152.921 50.7922C152.054 51.2773 151.096 51.5198 150.049 51.5198ZM150.049 49.0522C150.938 49.0522 151.647 48.7569 152.176 48.1664C152.715 47.5758 152.985 46.7955 152.985 45.8253C152.985 44.8445 152.715 44.0642 152.176 43.4842C151.647 42.8936 150.938 42.5984 150.049 42.5984C149.15 42.5984 148.43 42.8884 147.891 43.4684C147.362 44.0484 147.097 44.834 147.097 45.8253C147.097 46.806 147.362 47.5916 147.891 48.1822C148.43 48.7622 149.15 49.0522 150.049 49.0522Z" fill="currentColor"/>
<path d="M162.937 51.4091L160.62 47.2173H159.97V51.4091H157.256V40.3047H161.81C162.689 40.3047 163.434 40.4576 164.048 40.7635C164.672 41.0693 165.138 41.4911 165.445 42.0289C165.751 42.5562 165.905 43.1467 165.905 43.8005C165.905 44.5387 165.693 45.1978 165.27 45.7778C164.857 46.3578 164.244 46.7691 163.429 47.0116L166 51.4091H162.937ZM159.97 45.3033H161.652C162.149 45.3033 162.519 45.182 162.763 44.9395C163.017 44.6969 163.143 44.3542 163.143 43.9113C163.143 43.4895 163.017 43.1573 162.763 42.9147C162.519 42.6722 162.149 42.5509 161.652 42.5509H159.97V45.3033Z" fill="currentColor"/>
<path d="M0 0H58.1881V58H0V0Z" fill="#F52A2A"/>
</svg>
