<svg width="230" height="81" viewBox="0 0 230 81" fill="none" xmlns="http://www.w3.org/2000/svg">
<path d="M117.342 23.0084V38.4205H113.582V32.0756H107.733V38.4205H103.973V23.0084H107.733V29.0459H113.582V23.0084H117.342Z" fill="black"/>
<path d="M123.816 26.0161V29.1337H128.851V32.0317H123.816V35.4127H129.511V38.4205H120.056V23.0084H129.511V26.0161H123.816Z" fill="black"/>
<path d="M135.646 23.0084V32.2293C135.646 33.1514 135.873 33.8612 136.327 34.3589C136.782 34.8565 137.449 35.1053 138.328 35.1053C139.208 35.1053 139.882 34.8565 140.351 34.3589C140.82 33.8612 141.055 33.1514 141.055 32.2293V23.0084H144.815V32.2073C144.815 33.5831 144.522 34.7467 143.935 35.6981C143.349 36.6495 142.557 37.3666 141.56 37.8496C140.578 38.3326 139.479 38.5741 138.262 38.5741C137.046 38.5741 135.954 38.34 134.986 37.8716C134.033 37.3886 133.278 36.6714 132.721 35.72C132.164 34.754 131.886 33.5831 131.886 32.2073V23.0084H135.646Z" fill="black"/>
<path d="M155.327 38.4205L152.116 32.6025H151.215V38.4205H147.455V23.0084H153.765C154.982 23.0084 156.016 23.2206 156.866 23.645C157.731 24.0695 158.376 24.655 158.801 25.4014C159.226 26.1332 159.438 26.9529 159.438 27.8603C159.438 28.8849 159.145 29.7996 158.559 30.6046C157.987 31.4096 157.137 31.9805 156.008 32.3171L159.57 38.4205H155.327ZM151.215 29.946H153.546C154.235 29.946 154.748 29.7777 155.085 29.441C155.437 29.1044 155.612 28.6287 155.612 28.014C155.612 27.4285 155.437 26.9675 155.085 26.6309C154.748 26.2942 154.235 26.1259 153.546 26.1259H151.215V29.946Z" fill="black"/>
<path d="M165.558 23.0084V38.4205H161.799V23.0084H165.558Z" fill="black"/>
<path d="M173.868 38.5741C172.739 38.5741 171.728 38.3912 170.834 38.0253C169.94 37.6594 169.221 37.1178 168.679 36.4006C168.151 35.6835 167.873 34.8199 167.843 33.81H171.845C171.904 34.3808 172.102 34.8199 172.439 35.1273C172.776 35.42 173.216 35.5664 173.758 35.5664C174.315 35.5664 174.755 35.442 175.077 35.1931C175.4 34.9297 175.561 34.5711 175.561 34.1174C175.561 33.7368 175.429 33.4221 175.165 33.1733C174.916 32.9245 174.601 32.7196 174.22 32.5586C173.853 32.3976 173.326 32.2146 172.637 32.0097C171.64 31.7024 170.827 31.395 170.196 31.0876C169.566 30.7803 169.024 30.3265 168.569 29.7265C168.115 29.1264 167.887 28.3433 167.887 27.3773C167.887 25.943 168.408 24.8233 169.449 24.0183C170.489 23.1986 171.845 22.7888 173.516 22.7888C175.217 22.7888 176.587 23.1986 177.628 24.0183C178.669 24.8233 179.226 25.9503 179.299 27.3993H175.231C175.202 26.9016 175.019 26.5138 174.682 26.2357C174.345 25.943 173.912 25.7966 173.384 25.7966C172.93 25.7966 172.564 25.921 172.285 26.1698C172.007 26.404 171.867 26.748 171.867 27.2017C171.867 27.6993 172.102 28.0872 172.571 28.3653C173.04 28.6434 173.773 28.9434 174.77 29.2654C175.766 29.602 176.573 29.924 177.188 30.2314C177.819 30.5388 178.361 30.9852 178.815 31.5706C179.27 32.1561 179.497 32.9099 179.497 33.832C179.497 34.7101 179.27 35.5078 178.815 36.225C178.376 36.9422 177.731 37.513 176.88 37.9375C176.03 38.3619 175.026 38.5741 173.868 38.5741Z" fill="black"/>
<path d="M192.915 23.0084V26.0161H188.825V38.4205H185.065V26.0161H180.975V23.0084H192.915Z" fill="black"/>
<path d="M194.164 30.6925C194.164 29.1703 194.494 27.8164 195.154 26.6309C195.813 25.4307 196.729 24.5013 197.902 23.8426C199.089 23.1694 200.431 22.8327 201.926 22.8327C203.758 22.8327 205.327 23.3157 206.631 24.2817C207.936 25.2477 208.808 26.565 209.248 28.2335H205.114C204.806 27.5895 204.366 27.0992 203.795 26.7626C203.238 26.426 202.6 26.2576 201.882 26.2576C200.724 26.2576 199.786 26.6601 199.067 27.4651C198.349 28.2701 197.99 29.3459 197.99 30.6925C197.99 32.039 198.349 33.1148 199.067 33.9198C199.786 34.7248 200.724 35.1273 201.882 35.1273C202.6 35.1273 203.238 34.959 203.795 34.6223C204.366 34.2857 204.806 33.7954 205.114 33.1514H209.248C208.808 34.8199 207.936 36.1372 206.631 37.1032C205.327 38.0545 203.758 38.5302 201.926 38.5302C200.431 38.5302 199.089 38.2009 197.902 37.5423C196.729 36.869 195.813 35.9396 195.154 34.754C194.494 33.5685 194.164 32.2146 194.164 30.6925Z" fill="black"/>
<path d="M217.135 38.5741C216.007 38.5741 214.995 38.3912 214.101 38.0253C213.207 37.6594 212.488 37.1178 211.946 36.4006C211.418 35.6835 211.14 34.8199 211.111 33.81H215.112C215.171 34.3808 215.369 34.8199 215.706 35.1273C216.043 35.42 216.483 35.5664 217.025 35.5664C217.582 35.5664 218.022 35.442 218.345 35.1931C218.667 34.9297 218.828 34.5711 218.828 34.1174C218.828 33.7368 218.696 33.4221 218.433 33.1733C218.183 32.9245 217.868 32.7196 217.487 32.5586C217.121 32.3976 216.593 32.2146 215.904 32.0097C214.907 31.7024 214.094 31.395 213.463 31.0876C212.833 30.7803 212.291 30.3265 211.836 29.7265C211.382 29.1264 211.155 28.3433 211.155 27.3773C211.155 25.943 211.675 24.8233 212.716 24.0183C213.756 23.1986 215.112 22.7888 216.783 22.7888C218.484 22.7888 219.854 23.1986 220.895 24.0183C221.936 24.8233 222.493 25.9503 222.566 27.3993H218.498C218.469 26.9016 218.286 26.5138 217.949 26.2357C217.612 25.943 217.179 25.7966 216.651 25.7966C216.197 25.7966 215.831 25.921 215.552 26.1698C215.274 26.404 215.134 26.748 215.134 27.2017C215.134 27.6993 215.369 28.0872 215.838 28.3653C216.307 28.6434 217.04 28.9434 218.037 29.2654C219.034 29.602 219.84 29.924 220.455 30.2314C221.086 30.5388 221.628 30.9852 222.082 31.5706C222.537 32.1561 222.764 32.9099 222.764 33.832C222.764 34.7101 222.537 35.5078 222.082 36.225C221.643 36.9422 220.998 37.513 220.148 37.9375C219.297 38.3619 218.293 38.5741 217.135 38.5741Z" fill="black"/>
<path d="M103.335 63.6243C103.335 62.1021 103.665 60.7482 104.325 59.5627C104.985 58.3625 105.901 57.4331 107.073 56.7745C108.261 56.1012 109.602 55.7645 111.097 55.7645C112.93 55.7645 114.498 56.2475 115.803 57.2135C117.107 58.1795 117.979 59.4968 118.419 61.1654H114.285C113.978 60.5214 113.538 60.031 112.966 59.6944C112.409 59.3578 111.771 59.1895 111.053 59.1895C109.895 59.1895 108.957 59.592 108.239 60.397C107.52 61.202 107.161 62.2777 107.161 63.6243C107.161 64.9708 107.52 66.0466 108.239 66.8516C108.957 67.6566 109.895 68.0591 111.053 68.0591C111.771 68.0591 112.409 67.8908 112.966 67.5541C113.538 67.2175 113.978 66.7272 114.285 66.0832H118.419C117.979 67.7517 117.107 69.069 115.803 70.035C114.498 70.9864 112.93 71.462 111.097 71.462C109.602 71.462 108.261 71.1327 107.073 70.4741C105.901 69.8008 104.985 68.8714 104.325 67.6859C103.665 66.5003 103.335 65.1465 103.335 63.6243Z" fill="black"/>
<path d="M128.022 71.506C126.57 71.506 125.237 71.1693 124.02 70.496C122.818 69.8228 121.858 68.886 121.139 67.6859C120.436 66.471 120.084 65.1099 120.084 63.6023C120.084 62.0948 120.436 60.7409 121.139 59.5407C121.858 58.3405 122.818 57.4038 124.02 56.7305C125.237 56.0573 126.57 55.7206 128.022 55.7206C129.473 55.7206 130.799 56.0573 132.001 56.7305C133.218 57.4038 134.171 58.3405 134.86 59.5407C135.563 60.7409 135.915 62.0948 135.915 63.6023C135.915 65.1099 135.563 66.471 134.86 67.6859C134.156 68.886 133.203 69.8228 132.001 70.496C130.799 71.1693 129.473 71.506 128.022 71.506ZM128.022 68.0811C129.253 68.0811 130.235 67.6712 130.968 66.8516C131.716 66.032 132.089 64.9489 132.089 63.6023C132.089 62.2411 131.716 61.158 130.968 60.353C130.235 59.5334 129.253 59.1236 128.022 59.1236C126.776 59.1236 125.779 59.5261 125.031 60.3311C124.298 61.1361 123.932 62.2265 123.932 63.6023C123.932 64.9635 124.298 66.0539 125.031 66.8735C125.779 67.6785 126.776 68.0811 128.022 68.0811Z" fill="black"/>
<path d="M141.767 68.4543H146.692V71.3523H138.007V55.9402H141.767V68.4543Z" fill="black"/>
<path d="M152.246 68.4543H157.171V71.3523H148.486V55.9402H152.246V68.4543Z" fill="black"/>
<path d="M162.724 58.948V62.0655H167.759V64.9635H162.724V68.3445H168.419V71.3523H158.964V55.9402H168.419V58.948H162.724Z" fill="black"/>
<path d="M170.222 63.6243C170.222 62.1021 170.552 60.7482 171.212 59.5627C171.871 58.3625 172.788 57.4331 173.96 56.7745C175.148 56.1012 176.489 55.7645 177.984 55.7645C179.816 55.7645 181.385 56.2475 182.689 57.2135C183.994 58.1795 184.866 59.4968 185.306 61.1654H181.172C180.864 60.5214 180.425 60.031 179.853 59.6944C179.296 59.3578 178.658 59.1895 177.94 59.1895C176.782 59.1895 175.844 59.592 175.126 60.397C174.407 61.202 174.048 62.2777 174.048 63.6243C174.048 64.9708 174.407 66.0466 175.126 66.8516C175.844 67.6566 176.782 68.0591 177.94 68.0591C178.658 68.0591 179.296 67.8908 179.853 67.5541C180.425 67.2175 180.864 66.7272 181.172 66.0832H185.306C184.866 67.7517 183.994 69.069 182.689 70.035C181.385 70.9864 179.816 71.462 177.984 71.462C176.489 71.462 175.148 71.1327 173.96 70.4741C172.788 69.8008 171.871 68.8714 171.212 67.6859C170.552 66.5003 170.222 65.1465 170.222 63.6243Z" fill="black"/>
<path d="M198.712 55.9402V58.948H194.623V71.3523H190.863V58.948H186.773V55.9402H198.712Z" fill="black"/>
<path d="M207.899 71.506C206.448 71.506 205.114 71.1693 203.898 70.496C202.696 69.8228 201.735 68.886 201.017 67.6859C200.314 66.471 199.962 65.1099 199.962 63.6023C199.962 62.0948 200.314 60.7409 201.017 59.5407C201.735 58.3405 202.696 57.4038 203.898 56.7305C205.114 56.0573 206.448 55.7206 207.899 55.7206C209.35 55.7206 210.677 56.0573 211.879 56.7305C213.096 57.4038 214.049 58.3405 214.738 59.5407C215.441 60.7409 215.793 62.0948 215.793 63.6023C215.793 65.1099 215.441 66.471 214.738 67.6859C214.034 68.886 213.081 69.8228 211.879 70.496C210.677 71.1693 209.35 71.506 207.899 71.506ZM207.899 68.0811C209.131 68.0811 210.113 67.6712 210.846 66.8516C211.593 66.032 211.967 64.9489 211.967 63.6023C211.967 62.2411 211.593 61.158 210.846 60.353C210.113 59.5334 209.131 59.1236 207.899 59.1236C206.653 59.1236 205.657 59.5261 204.909 60.3311C204.176 61.1361 203.81 62.2265 203.81 63.6023C203.81 64.9635 204.176 66.0539 204.909 66.8735C205.657 67.6785 206.653 68.0811 207.899 68.0811Z" fill="black"/>
<path d="M225.756 71.3523L222.546 65.5343H221.645V71.3523H217.885V55.9402H224.195C225.412 55.9402 226.445 56.1524 227.295 56.5769C228.16 57.0013 228.805 57.5868 229.23 58.3332C229.656 59.065 229.868 59.8847 229.868 60.7921C229.868 61.8167 229.575 62.7315 228.989 63.5365C228.417 64.3415 227.567 64.9123 226.438 65.2489L230 71.3523H225.756ZM221.645 62.8778H223.975C224.664 62.8778 225.177 62.7095 225.514 62.3729C225.866 62.0362 226.042 61.5605 226.042 60.9458C226.042 60.3604 225.866 59.8993 225.514 59.5627C225.177 59.226 224.664 59.0577 223.975 59.0577H221.645V62.8778Z" fill="black"/>
<path d="M0 0H80.6221V80.5H0V0Z" fill="#F52A2A"/>
</svg>
