<svg width="100" height="35" viewBox="0 0 100 35" fill="none" xmlns="http://www.w3.org/2000/svg">
<path d="M43.8756 11.5745V17.3182H42.4697V14.9536H40.2828V17.3182H38.8769V11.5745H40.2828V13.8245H42.4697V11.5745H43.8756Z" fill="white"/>
<path d="M46.2964 12.6955V13.8573H48.1791V14.9373H46.2964V16.1973H48.4258V17.3182H44.8905V11.5745H48.4258V12.6955H46.2964Z" fill="white"/>
<path d="M50.7197 11.5745V15.0109C50.7197 15.3545 50.8047 15.6191 50.9746 15.8045C51.1445 15.99 51.3939 16.0827 51.7227 16.0827C52.0516 16.0827 52.3037 15.99 52.4791 15.8045C52.6545 15.6191 52.7422 15.3545 52.7422 15.0109V11.5745H54.1481V15.0027C54.1481 15.5155 54.0385 15.9491 53.8192 16.3036C53.6 16.6582 53.304 16.9255 52.9313 17.1055C52.5641 17.2855 52.153 17.3755 51.6981 17.3755C51.2432 17.3755 50.8348 17.2882 50.4731 17.1136C50.1168 16.9336 49.8345 16.6664 49.6262 16.3118C49.418 15.9518 49.3138 15.5155 49.3138 15.0027V11.5745H50.7197Z" fill="white"/>
<path d="M58.0786 17.3182L56.8783 15.15H56.5412V17.3182H55.1353V11.5745H57.4949C57.9498 11.5745 58.3362 11.6536 58.6541 11.8118C58.9775 11.97 59.2187 12.1882 59.3776 12.4664C59.5366 12.7391 59.6161 13.0445 59.6161 13.3827C59.6161 13.7645 59.5064 14.1055 59.2872 14.4055C59.0734 14.7055 58.7555 14.9182 58.3335 15.0436L59.6654 17.3182H58.0786ZM56.5412 14.16H57.4127C57.6703 14.16 57.8621 14.0973 57.9882 13.9718C58.1197 13.8464 58.1855 13.6691 58.1855 13.44C58.1855 13.2218 58.1197 13.05 57.9882 12.9245C57.8621 12.7991 57.6703 12.7364 57.4127 12.7364H56.5412V14.16Z" fill="white"/>
<path d="M61.9045 11.5745V17.3182H60.4986V11.5745H61.9045Z" fill="white"/>
<path d="M65.0116 17.3755C64.5895 17.3755 64.2113 17.3073 63.877 17.1709C63.5427 17.0345 63.2741 16.8327 63.0713 16.5655C62.874 16.2982 62.7698 15.9764 62.7589 15.6H64.2552C64.2771 15.8127 64.3511 15.9764 64.4772 16.0909C64.6032 16.2 64.7677 16.2545 64.9705 16.2545C65.1787 16.2545 65.3432 16.2082 65.4638 16.1155C65.5843 16.0173 65.6446 15.8836 65.6446 15.7145C65.6446 15.5727 65.5953 15.4555 65.4966 15.3627C65.4035 15.27 65.2856 15.1936 65.1431 15.1336C65.0061 15.0736 64.8088 15.0055 64.5512 14.9291C64.1785 14.8145 63.8743 14.7 63.6386 14.5855C63.4029 14.4709 63.2001 14.3018 63.0302 14.0782C62.8603 13.8545 62.7753 13.5627 62.7753 13.2027C62.7753 12.6682 62.9699 12.2509 63.359 11.9509C63.7482 11.6455 64.2552 11.4927 64.88 11.4927C65.5158 11.4927 66.0283 11.6455 66.4175 11.9509C66.8066 12.2509 67.0149 12.6709 67.0423 13.2109H65.5213C65.5103 13.0255 65.4418 12.8809 65.3158 12.7773C65.1897 12.6682 65.028 12.6136 64.8307 12.6136C64.6608 12.6136 64.5238 12.66 64.4196 12.7527C64.3155 12.84 64.2634 12.9682 64.2634 13.1373C64.2634 13.3227 64.3511 13.4673 64.5265 13.5709C64.7019 13.6745 64.9759 13.7864 65.3486 13.9064C65.7214 14.0318 66.0228 14.1518 66.253 14.2664C66.4887 14.3809 66.6915 14.5473 66.8614 14.7655C67.0313 14.9836 67.1163 15.2645 67.1163 15.6082C67.1163 15.9355 67.0313 16.2327 66.8614 16.5C66.697 16.7673 66.4558 16.98 66.1379 17.1382C65.82 17.2964 65.4446 17.3755 65.0116 17.3755Z" fill="white"/>
<path d="M72.1333 11.5745V12.6955H70.6041V17.3182H69.1983V12.6955H67.6691V11.5745H72.1333Z" fill="white"/>
<path d="M72.6005 14.4382C72.6005 13.8709 72.7238 13.3664 72.9705 12.9245C73.2171 12.4773 73.5597 12.1309 73.9982 11.8855C74.4421 11.6345 74.9436 11.5091 75.5027 11.5091C76.1878 11.5091 76.7743 11.6891 77.2621 12.0491C77.7499 12.4091 78.076 12.9 78.2405 13.5218H76.6948C76.5797 13.2818 76.4153 13.0991 76.2015 12.9736C75.9933 12.8482 75.7548 12.7855 75.4863 12.7855C75.0533 12.7855 74.7025 12.9355 74.4339 13.2355C74.1653 13.5355 74.031 13.9364 74.031 14.4382C74.031 14.94 74.1653 15.3409 74.4339 15.6409C74.7025 15.9409 75.0533 16.0909 75.4863 16.0909C75.7548 16.0909 75.9933 16.0282 76.2015 15.9027C76.4153 15.7773 76.5797 15.5945 76.6948 15.3545H78.2405C78.076 15.9764 77.7499 16.4673 77.2621 16.8273C76.7743 17.1818 76.1878 17.3591 75.5027 17.3591C74.9436 17.3591 74.4421 17.2364 73.9982 16.9909C73.5597 16.74 73.2171 16.3936 72.9705 15.9518C72.7238 15.51 72.6005 15.0055 72.6005 14.4382Z" fill="white"/>
<path d="M81.1897 17.3755C80.7677 17.3755 80.3895 17.3073 80.0551 17.1709C79.7208 17.0345 79.4522 16.8327 79.2494 16.5655C79.0521 16.2982 78.948 15.9764 78.937 15.6H80.4333C80.4552 15.8127 80.5292 15.9764 80.6553 16.0909C80.7814 16.2 80.9458 16.2545 81.1486 16.2545C81.3569 16.2545 81.5213 16.2082 81.6419 16.1155C81.7625 16.0173 81.8228 15.8836 81.8228 15.7145C81.8228 15.5727 81.7734 15.4555 81.6748 15.3627C81.5816 15.27 81.4637 15.1936 81.3212 15.1336C81.1842 15.0736 80.9869 15.0055 80.7293 14.9291C80.3566 14.8145 80.0524 14.7 79.8167 14.5855C79.581 14.4709 79.3782 14.3018 79.2083 14.0782C79.0384 13.8545 78.9534 13.5627 78.9534 13.2027C78.9534 12.6682 79.148 12.2509 79.5372 11.9509C79.9263 11.6455 80.4333 11.4927 81.0581 11.4927C81.6939 11.4927 82.2064 11.6455 82.5956 11.9509C82.9847 12.2509 83.193 12.6709 83.2204 13.2109H81.6994C81.6885 13.0255 81.62 12.8809 81.4939 12.7773C81.3678 12.6682 81.2061 12.6136 81.0088 12.6136C80.8389 12.6136 80.7019 12.66 80.5977 12.7527C80.4936 12.84 80.4415 12.9682 80.4415 13.1373C80.4415 13.3227 80.5292 13.4673 80.7046 13.5709C80.88 13.6745 81.1541 13.7864 81.5268 13.9064C81.8995 14.0318 82.2009 14.1518 82.4311 14.2664C82.6668 14.3809 82.8696 14.5473 83.0395 14.7655C83.2094 14.9836 83.2944 15.2645 83.2944 15.6082C83.2944 15.9355 83.2094 16.2327 83.0395 16.5C82.8751 16.7673 82.6339 16.98 82.316 17.1382C81.9981 17.2964 81.6227 17.3755 81.1897 17.3755Z" fill="white"/>
<path d="M38.6385 26.7109C38.6385 26.1436 38.7618 25.6391 39.0085 25.1973C39.2551 24.75 39.5977 24.4036 40.0361 24.1582C40.4801 23.9073 40.9816 23.7818 41.5407 23.7818C42.2258 23.7818 42.8123 23.9618 43.3001 24.3218C43.7879 24.6818 44.114 25.1727 44.2785 25.7945H42.7328C42.6177 25.5545 42.4533 25.3718 42.2395 25.2464C42.0312 25.1209 41.7928 25.0582 41.5242 25.0582C41.0912 25.0582 40.7405 25.2082 40.4719 25.5082C40.2033 25.8082 40.069 26.2091 40.069 26.7109C40.069 27.2127 40.2033 27.6136 40.4719 27.9136C40.7405 28.2136 41.0912 28.3636 41.5242 28.3636C41.7928 28.3636 42.0312 28.3009 42.2395 28.1755C42.4533 28.05 42.6177 27.8673 42.7328 27.6273H44.2785C44.114 28.2491 43.7879 28.74 43.3001 29.1C42.8123 29.4545 42.2258 29.6318 41.5407 29.6318C40.9816 29.6318 40.4801 29.5091 40.0361 29.2636C39.5977 29.0127 39.2551 28.6664 39.0085 28.2245C38.7618 27.7827 38.6385 27.2782 38.6385 26.7109Z" fill="white"/>
<path d="M47.869 29.6482C47.3263 29.6482 46.8276 29.5227 46.3726 29.2718C45.9232 29.0209 45.5642 28.6718 45.2956 28.2245C45.0325 27.7718 44.901 27.2645 44.901 26.7027C44.901 26.1409 45.0325 25.6364 45.2956 25.1891C45.5642 24.7418 45.9232 24.3927 46.3726 24.1418C46.8276 23.8909 47.3263 23.7655 47.869 23.7655C48.4116 23.7655 48.9076 23.8909 49.3571 24.1418C49.812 24.3927 50.1682 24.7418 50.4259 25.1891C50.6889 25.6364 50.8205 26.1409 50.8205 26.7027C50.8205 27.2645 50.6889 27.7718 50.4259 28.2245C50.1628 28.6718 49.8065 29.0209 49.3571 29.2718C48.9076 29.5227 48.4116 29.6482 47.869 29.6482ZM47.869 28.3718C48.3294 28.3718 48.6966 28.2191 48.9706 27.9136C49.2502 27.6082 49.3899 27.2045 49.3899 26.7027C49.3899 26.1955 49.2502 25.7918 48.9706 25.4918C48.6966 25.1864 48.3294 25.0336 47.869 25.0336C47.4031 25.0336 47.0304 25.1836 46.7508 25.4836C46.4768 25.7836 46.3398 26.19 46.3398 26.7027C46.3398 27.21 46.4768 27.6164 46.7508 27.9218C47.0304 28.2218 47.4031 28.3718 47.869 28.3718Z" fill="white"/>
<path d="M53.0085 28.5109H54.8501V29.5909H51.6026V23.8473H53.0085V28.5109Z" fill="white"/>
<path d="M56.9266 28.5109H58.7682V29.5909H55.5207V23.8473H56.9266V28.5109Z" fill="white"/>
<path d="M60.8447 24.9682V26.13H62.7274V27.21H60.8447V28.47H62.974V29.5909H59.4388V23.8473H62.974V24.9682H60.8447Z" fill="white"/>
<path d="M63.6483 26.7109C63.6483 26.1436 63.7717 25.6391 64.0183 25.1973C64.2649 24.75 64.6075 24.4036 65.046 24.1582C65.49 23.9073 65.9915 23.7818 66.5505 23.7818C67.2357 23.7818 67.8221 23.9618 68.3099 24.3218C68.7978 24.6818 69.1239 25.1727 69.2883 25.7945H67.7427C67.6276 25.5545 67.4631 25.3718 67.2494 25.2464C67.0411 25.1209 66.8027 25.0582 66.5341 25.0582C66.1011 25.0582 65.7503 25.2082 65.4817 25.5082C65.2132 25.8082 65.0789 26.2091 65.0789 26.7109C65.0789 27.2127 65.2132 27.6136 65.4817 27.9136C65.7503 28.2136 66.1011 28.3636 66.5341 28.3636C66.8027 28.3636 67.0411 28.3009 67.2494 28.1755C67.4631 28.05 67.6276 27.8673 67.7427 27.6273H69.2883C69.1239 28.2491 68.7978 28.74 68.3099 29.1C67.8221 29.4545 67.2357 29.6318 66.5505 29.6318C65.9915 29.6318 65.49 29.5091 65.046 29.2636C64.6075 29.0127 64.2649 28.6664 64.0183 28.2245C63.7717 27.7827 63.6483 27.2782 63.6483 26.7109Z" fill="white"/>
<path d="M74.3011 23.8473V24.9682H72.7719V29.5909H71.366V24.9682H69.8368V23.8473H74.3011Z" fill="white"/>
<path d="M77.7363 29.6482C77.1936 29.6482 76.6949 29.5227 76.2399 29.2718C75.7905 29.0209 75.4315 28.6718 75.1629 28.2245C74.8998 27.7718 74.7683 27.2645 74.7683 26.7027C74.7683 26.1409 74.8998 25.6364 75.1629 25.1891C75.4315 24.7418 75.7905 24.3927 76.2399 24.1418C76.6949 23.8909 77.1936 23.7655 77.7363 23.7655C78.2789 23.7655 78.7749 23.8909 79.2244 24.1418C79.6793 24.3927 80.0355 24.7418 80.2932 25.1891C80.5562 25.6364 80.6878 26.1409 80.6878 26.7027C80.6878 27.2645 80.5562 27.7718 80.2932 28.2245C80.0301 28.6718 79.6738 29.0209 79.2244 29.2718C78.7749 29.5227 78.2789 29.6482 77.7363 29.6482ZM77.7363 28.3718C78.1967 28.3718 78.5639 28.2191 78.8379 27.9136C79.1175 27.6082 79.2572 27.2045 79.2572 26.7027C79.2572 26.1955 79.1175 25.7918 78.8379 25.4918C78.5639 25.1864 78.1967 25.0336 77.7363 25.0336C77.2704 25.0336 76.8977 25.1836 76.6181 25.4836C76.3441 25.7836 76.2071 26.19 76.2071 26.7027C76.2071 27.21 76.3441 27.6164 76.6181 27.9218C76.8977 28.2218 77.2704 28.3718 77.7363 28.3718Z" fill="white"/>
<path d="M84.4132 29.5909L83.2129 27.4227H82.8758V29.5909H81.4699V23.8473H83.8295C84.2844 23.8473 84.6708 23.9264 84.9887 24.0845C85.3121 24.2427 85.5533 24.4609 85.7122 24.7391C85.8712 25.0118 85.9507 25.3173 85.9507 25.6555C85.9507 26.0373 85.841 26.3782 85.6218 26.6782C85.408 26.9782 85.0901 27.1909 84.6681 27.3164L86 29.5909H84.4132ZM82.8758 26.4327H83.7473C84.0049 26.4327 84.1967 26.37 84.3228 26.2445C84.4543 26.1191 84.5201 25.9418 84.5201 25.7127C84.5201 25.4945 84.4543 25.3227 84.3228 25.1973C84.1967 25.0718 84.0049 25.0091 83.7473 25.0091H82.8758V26.4327Z" fill="white"/>
<path d="M0 3H30.1456V33H0V3Z" fill="#F52A2A"/>
</svg>
